<?xml version="1.0" encoding="UTF-8" standalone="no"?>
<!-- Created with Inkscape (http://www.inkscape.org/) -->

<svg
   width="154.8201mm"
   height="144.37444mm"
   viewBox="0 0 154.8201 144.37444"
   version="1.1"
   id="svg1025"
   inkscape:version="1.2.1 (9c6d41e, 2022-07-14)"
   sodipodi:docname="torb_anvil.svg"
   xmlns:inkscape="http://www.inkscape.org/namespaces/inkscape"
   xmlns:sodipodi="http://sodipodi.sourceforge.net/DTD/sodipodi-0.dtd"
   xmlns="http://www.w3.org/2000/svg"
   xmlns:svg="http://www.w3.org/2000/svg">
  <sodipodi:namedview
     id="namedview1027"
     pagecolor="#ffffff"
     bordercolor="#000000"
     borderopacity="0.25"
     inkscape:showpageshadow="2"
     inkscape:pageopacity="0.0"
     inkscape:pagecheckerboard="0"
     inkscape:deskcolor="#d1d1d1"
     inkscape:document-units="mm"
     showgrid="false"
     inkscape:zoom="0.2102413"
     inkscape:cx="-409.05378"
     inkscape:cy="271.11704"
     inkscape:window-width="1512"
     inkscape:window-height="860"
     inkscape:window-x="0"
     inkscape:window-y="38"
     inkscape:window-maximized="1"
     inkscape:current-layer="layer1" />
  <defs
     id="defs1022">
    <clipPath
       clipPathUnits="userSpaceOnUse"
       id="clipPath374">
      <path
         d="m 13095.7,4648 345.1,-492.5 c 26.9,-38.4 78.4,-50.5 119.5,-28 l 316.2,172.9 c 44.7,24.5 62.4,79.5 40.5,125.4 l -211.9,442.7 1670.6,860.1 c 45.1,23.44 62.7,79.02 39.2,124.13 l -57.4,110.38 c -23.5,45.11 -79.1,62.65 -124.2,39.18 l -1683.6,-866.79 -204.5,370.7 c -25.2,45.6 -82.3,62.7 -128.4,38.5 l -167,-87.7 c -33.7,-17.7 -53,-54.3 -48.6,-92.1 l 78.5,-674.7 c 1.7,-15.2 7.3,-29.7 16,-42.2 z"
         id="path372" />
    </clipPath>
    <linearGradient
       x1="0"
       y1="0"
       x2="1"
       y2="0"
       gradientUnits="userSpaceOnUse"
       gradientTransform="matrix(4235.66,4235.66,4235.66,-4235.66,11364.4,2744.3)"
       spreadMethod="pad"
       id="linearGradient384">
      <stop
         style="stop-opacity:1;stop-color:#f8990f"
         offset="0"
         id="stop376" />
      <stop
         style="stop-opacity:1;stop-color:#f8990f"
         offset="0.139665"
         id="stop378" />
      <stop
         style="stop-opacity:1;stop-color:#ee2147"
         offset="0.877095"
         id="stop380" />
      <stop
         style="stop-opacity:1;stop-color:#ee2147"
         offset="1"
         id="stop382" />
    </linearGradient>
    <clipPath
       clipPathUnits="userSpaceOnUse"
       id="clipPath394">
      <path
         d="m 14959.3,3270.2 h 182.1 v 182.1 h -182.1 z"
         id="path392" />
    </clipPath>
    <linearGradient
       x1="0"
       y1="0"
       x2="1"
       y2="0"
       gradientUnits="userSpaceOnUse"
       gradientTransform="matrix(8047.75,8047.75,8047.75,-8047.75,11003.3,-685.8)"
       spreadMethod="pad"
       id="linearGradient404">
      <stop
         style="stop-opacity:1;stop-color:#f8990f"
         offset="0"
         id="stop396" />
      <stop
         style="stop-opacity:1;stop-color:#f8990f"
         offset="0.139665"
         id="stop398" />
      <stop
         style="stop-opacity:1;stop-color:#ee2147"
         offset="0.877095"
         id="stop400" />
      <stop
         style="stop-opacity:1;stop-color:#ee2147"
         offset="1"
         id="stop402" />
    </linearGradient>
    <clipPath
       clipPathUnits="userSpaceOnUse"
       id="clipPath414">
      <path
         d="m 15412.7,4573.9 c 0,0 -94.1,-0.6 -157.2,-1.5 -36,-0.5 -70.4,14.3 -94.9,40.7 -21.9,23.5 -34,54.4 -34,86.5 v 92.7 c 0,23.2 -18.9,42 -42.1,42 h -127.9 c -23.3,0 -42.1,-18.8 -42.1,-42 v -128 c 0,-23.2 18.8,-42.1 42.1,-42.1 h 83.4 c 35.4,0 69.2,-14.7 93.3,-40.7 l 1.3,-1.4 c 22.5,-24.2 34.6,-56.1 34,-89.1 -0.7,-33.9 -1.1,-72.3 -1.1,-72.3 0,-50.3 -21.3,-98.4 -58.7,-132.2 -12.6,-11.4 -29.2,-17.7 -46.3,-17.7 h -324.3 c -44.2,0 -80,-35.8 -80,-80 v -362.5 c 0,-25.7 20.9,-46.5 46.6,-46.5 h 362.5 c 44.1,0 79.9,35.8 79.9,79.9 v 331.4 c 0,18.3 6.9,36.4 20.2,49 28.4,26.9 65.9,41.9 105,41.9 h 140.3 c 25.8,0 46.6,20.9 46.6,46.6 v 198.7 c 0,25.7 -20.8,46.6 -46.6,46.6 z"
         id="path412" />
    </clipPath>
    <linearGradient
       x1="0"
       y1="0"
       x2="1"
       y2="0"
       gradientUnits="userSpaceOnUse"
       gradientTransform="matrix(4235.66,4235.66,4235.66,-4235.66,12410.7,1698)"
       spreadMethod="pad"
       id="linearGradient424">
      <stop
         style="stop-opacity:1;stop-color:#f8990f"
         offset="0"
         id="stop416" />
      <stop
         style="stop-opacity:1;stop-color:#f8990f"
         offset="0.139665"
         id="stop418" />
      <stop
         style="stop-opacity:1;stop-color:#ee2147"
         offset="0.877095"
         id="stop420" />
      <stop
         style="stop-opacity:1;stop-color:#ee2147"
         offset="1"
         id="stop422" />
    </linearGradient>
    <clipPath
       clipPathUnits="userSpaceOnUse"
       id="clipPath434">
      <path
         d="m 12988,4220 -144.8,-54.7 331.4,-77.3 -31.8,97.4 167.1,-47.8 -171.4,253.1 21.1,-103.1 -313,328.5 162.4,-286.1 -204.6,70.4 z"
         id="path432" />
    </clipPath>
    <linearGradient
       x1="0"
       y1="0"
       x2="1"
       y2="0"
       gradientUnits="userSpaceOnUse"
       gradientTransform="matrix(4235.66,4235.66,4235.66,-4235.66,11405,2703.7)"
       spreadMethod="pad"
       id="linearGradient444">
      <stop
         style="stop-opacity:1;stop-color:#f8990f"
         offset="0"
         id="stop436" />
      <stop
         style="stop-opacity:1;stop-color:#f8990f"
         offset="0.139665"
         id="stop438" />
      <stop
         style="stop-opacity:1;stop-color:#ee2147"
         offset="0.877095"
         id="stop440" />
      <stop
         style="stop-opacity:1;stop-color:#ee2147"
         offset="1"
         id="stop442" />
    </linearGradient>
    <clipPath
       clipPathUnits="userSpaceOnUse"
       id="clipPath454">
      <path
         d="m 14444.1,3548.5 c 0,-29 -23.6,-52.6 -53,-52.6 h -186 c -29.4,0 -53,23.6 -53,52.6 v 186.4 c 0,29 23.6,52.6 53,52.6 h 186 c 29.4,0 53,-23.6 53,-52.6 z m 205,132.9 c -52.2,0 -94.8,42.7 -94.8,95.3 v 210.8 h -3399.8 c -71.5,0 -110.3,-84.3 -63.1,-138 159.2,-181 486.1,-478.7 929.9,-501 8.7,-0.9 265.5,-0.9 274.2,-1.3 l -0.5,-116.4 c -0.2,-53.1 31.2,-100.1 78.9,-123.2 253.1,-122.6 429.3,-380.9 429.3,-679.8 -0.2,-124.4 -101.1,-225.1 -225.5,-225.1 v 0 c -74.6,0 -135.2,-60.6 -135.2,-135.2 v -74.9 c 0,-40 32.4,-72.4 72.4,-72.4 h 1482.5 c 40,0 72.4,32.4 72.4,72.4 v 86.9 c 0,69.7 -57.7,122.2 -127.3,123.2 -123.2,1.8 -224.9,109.1 -227.3,232.5 0,429.3 346.6,708.3 722.2,708.3 h 125.1 c 160.4,0 290.8,129.1 292.4,289.4 l 2.5,248.5 z"
         id="path452" />
    </clipPath>
    <linearGradient
       x1="0"
       y1="0"
       x2="1"
       y2="0"
       gradientUnits="userSpaceOnUse"
       gradientTransform="matrix(4243.72,4243.72,4243.72,-4243.72,11860,2240.3)"
       spreadMethod="pad"
       id="linearGradient464">
      <stop
         style="stop-opacity:1;stop-color:#f8990f"
         offset="0"
         id="stop456" />
      <stop
         style="stop-opacity:1;stop-color:#f8990f"
         offset="0.139665"
         id="stop458" />
      <stop
         style="stop-opacity:1;stop-color:#ee2147"
         offset="0.877095"
         id="stop460" />
      <stop
         style="stop-opacity:1;stop-color:#ee2147"
         offset="1"
         id="stop462" />
    </linearGradient>
  </defs>
  <g
     inkscape:label="Layer 1"
     inkscape:groupmode="layer"
     id="layer1"
     transform="translate(-27.589953,-76.312785)">
    <g
       id="g1218"
       transform="translate(-5.7457578,-2.5169415)">
      <g
         id="g368"
         transform="matrix(0.03527778,0,0,-0.03527778,-357.21398,290.94455)">
        <g
           id="g370"
           clip-path="url(#clipPath374)">
          <path
             d="m 13095.7,4648 345.1,-492.5 c 26.9,-38.4 78.4,-50.5 119.5,-28 l 316.2,172.9 c 44.7,24.5 62.4,79.5 40.5,125.4 l -211.9,442.7 1670.6,860.1 c 45.1,23.44 62.7,79.02 39.2,124.13 l -57.4,110.38 c -23.5,45.11 -79.1,62.65 -124.2,39.18 l -1683.6,-866.79 -204.5,370.7 c -25.2,45.6 -82.3,62.7 -128.4,38.5 l -167,-87.7 c -33.7,-17.7 -53,-54.3 -48.6,-92.1 l 78.5,-674.7 c 1.7,-15.2 7.3,-29.7 16,-42.2"
             style="fill:url(#linearGradient384);fill-opacity:1;fill-rule:nonzero;stroke:none"
             id="path386" />
        </g>
      </g>
      <g
         id="g388"
         transform="matrix(0.03527778,0,0,-0.03527778,-357.21398,290.94455)">
        <g
           id="g390"
           clip-path="url(#clipPath394)">
          <path
             d="m 14959.3,3270.2 h 182.1 v 182.1 h -182.1 v -182.1"
             style="fill:url(#linearGradient404);fill-opacity:1;fill-rule:nonzero;stroke:none"
             id="path406" />
        </g>
      </g>
      <g
         id="g408"
         transform="matrix(0.03527778,0,0,-0.03527778,-357.21398,290.94455)">
        <g
           id="g410"
           clip-path="url(#clipPath414)">
          <path
             d="m 15412.7,4573.9 c 0,0 -94.1,-0.6 -157.2,-1.5 -36,-0.5 -70.4,14.3 -94.9,40.7 -21.9,23.5 -34,54.4 -34,86.5 v 92.7 c 0,23.2 -18.9,42 -42.1,42 h -127.9 c -23.3,0 -42.1,-18.8 -42.1,-42 v -128 c 0,-23.2 18.8,-42.1 42.1,-42.1 h 83.4 c 35.4,0 69.2,-14.7 93.3,-40.7 l 1.3,-1.4 c 22.5,-24.2 34.6,-56.1 34,-89.1 -0.7,-33.9 -1.1,-72.3 -1.1,-72.3 0,-50.3 -21.3,-98.4 -58.7,-132.2 -12.6,-11.4 -29.2,-17.7 -46.3,-17.7 h -324.3 c -44.2,0 -80,-35.8 -80,-80 v -362.5 c 0,-25.7 20.9,-46.5 46.6,-46.5 h 362.5 c 44.1,0 79.9,35.8 79.9,79.9 v 331.4 c 0,18.3 6.9,36.4 20.2,49 28.4,26.9 65.9,41.9 105,41.9 h 140.3 c 25.8,0 46.6,20.9 46.6,46.6 v 198.7 c 0,25.7 -20.8,46.6 -46.6,46.6"
             style="fill:url(#linearGradient424);fill-opacity:1;fill-rule:nonzero;stroke:none"
             id="path426" />
        </g>
      </g>
      <g
         id="g428"
         transform="matrix(0.03527778,0,0,-0.03527778,-357.21398,290.94455)">
        <g
           id="g430"
           clip-path="url(#clipPath434)">
          <path
             d="m 12988,4220 -144.8,-54.7 331.4,-77.3 -31.8,97.4 167.1,-47.8 -171.4,253.1 21.1,-103.1 -313,328.5 162.4,-286.1 -204.6,70.4 183.6,-180.4"
             style="fill:url(#linearGradient444);fill-opacity:1;fill-rule:nonzero;stroke:none"
             id="path446" />
        </g>
      </g>
      <g
         id="g448"
         transform="matrix(0.03527778,0,0,-0.03527778,-357.21398,290.94455)">
        <g
           id="g450"
           clip-path="url(#clipPath454)">
          <path
             d="m 14444.1,3548.5 c 0,-29 -23.6,-52.6 -53,-52.6 h -186 c -29.4,0 -53,23.6 -53,52.6 v 186.4 c 0,29 23.6,52.6 53,52.6 h 186 c 29.4,0 53,-23.6 53,-52.6 z m 205,132.9 c -52.2,0 -94.8,42.7 -94.8,95.3 v 210.8 h -3399.8 c -71.5,0 -110.3,-84.3 -63.1,-138 159.2,-181 486.1,-478.7 929.9,-501 8.7,-0.9 265.5,-0.9 274.2,-1.3 l -0.5,-116.4 c -0.2,-53.1 31.2,-100.1 78.9,-123.2 253.1,-122.6 429.3,-380.9 429.3,-679.8 -0.2,-124.4 -101.1,-225.1 -225.5,-225.1 v 0 c -74.6,0 -135.2,-60.6 -135.2,-135.2 v -74.9 c 0,-40 32.4,-72.4 72.4,-72.4 h 1482.5 c 40,0 72.4,32.4 72.4,72.4 v 86.9 c 0,69.7 -57.7,122.2 -127.3,123.2 -123.2,1.8 -224.9,109.1 -227.3,232.5 0,429.3 346.6,708.3 722.2,708.3 h 125.1 c 160.4,0 290.8,129.1 292.4,289.4 l 2.5,248.5 h -208.3"
             style="fill:url(#linearGradient464);fill-opacity:1;fill-rule:nonzero;stroke:none"
             id="path466" />
        </g>
      </g>
    </g>
  </g>
</svg>
