<?xml version="1.0" encoding="UTF-8" standalone="no"?>
<!-- Created with Inkscape (http://www.inkscape.org/) -->

<svg
   width="1406.6188"
   height="417.5997"
   viewBox="0 0 372.16788 110.48992"
   version="1.1"
   id="svg1393"
   inkscape:version="1.2.1 (9c6d41e, 2022-07-14)"
   sodipodi:docname="torb_anvil_text_horiz.svg"
   xmlns:inkscape="http://www.inkscape.org/namespaces/inkscape"
   xmlns:sodipodi="http://sodipodi.sourceforge.net/DTD/sodipodi-0.dtd"
   xmlns="http://www.w3.org/2000/svg"
   xmlns:svg="http://www.w3.org/2000/svg">
  <sodipodi:namedview
     id="namedview1395"
     pagecolor="#ffffff"
     bordercolor="#000000"
     borderopacity="0.25"
     inkscape:showpageshadow="2"
     inkscape:pageopacity="0.0"
     inkscape:pagecheckerboard="0"
     inkscape:deskcolor="#d1d1d1"
     inkscape:document-units="mm"
     showgrid="false"
     inkscape:zoom="0.2102413"
     inkscape:cx="539.85587"
     inkscape:cy="409.05378"
     inkscape:window-width="1309"
     inkscape:window-height="456"
     inkscape:window-x="0"
     inkscape:window-y="38"
     inkscape:window-maximized="0"
     inkscape:current-layer="layer1" />
  <defs
     id="defs1390">
    <clipPath
       clipPathUnits="userSpaceOnUse"
       id="clipPath274">
      <path
         d="m 10560.8,14692.6 264.1,-376.9 c 20.6,-29.4 60,-38.7 91.5,-21.4 l 242,132.3 c 34.2,18.7 47.8,60.8 31,95.9 l -162.2,338.8 1278.6,658.3 c 34.5,17.9 47.9,60.5 30,95 l -44,84.4 c -17.9,34.6 -60.5,48 -95,30 l -1288.5,-663.4 -156.5,283.7 c -19.3,35 -63,48.1 -98.3,29.5 l -127.8,-67.1 c -25.8,-13.5 -40.6,-41.6 -37.2,-70.5 l 60.1,-516.3 c 1.3,-11.6 5.5,-22.7 12.2,-32.3 z"
         id="path272" />
    </clipPath>
    <linearGradient
       x1="0"
       y1="0"
       x2="1"
       y2="0"
       gradientUnits="userSpaceOnUse"
       gradientTransform="matrix(3241.6,3241.6,3241.6,-3241.6,9235.84,13235.7)"
       spreadMethod="pad"
       id="linearGradient284">
      <stop
         style="stop-opacity:1;stop-color:#f8990f"
         offset="0"
         id="stop276" />
      <stop
         style="stop-opacity:1;stop-color:#f8990f"
         offset="0.139665"
         id="stop278" />
      <stop
         style="stop-opacity:1;stop-color:#ee2147"
         offset="0.877095"
         id="stop280" />
      <stop
         style="stop-opacity:1;stop-color:#ee2147"
         offset="1"
         id="stop282" />
    </linearGradient>
    <clipPath
       clipPathUnits="userSpaceOnUse"
       id="clipPath294">
      <path
         d="m 11987,13638.1 h 139.4 v 139.4 H 11987 Z"
         id="path292" />
    </clipPath>
    <linearGradient
       x1="0"
       y1="0"
       x2="1"
       y2="0"
       gradientUnits="userSpaceOnUse"
       gradientTransform="matrix(6159.04,6159.04,6159.04,-6159.04,8959.51,10610.6)"
       spreadMethod="pad"
       id="linearGradient304">
      <stop
         style="stop-opacity:1;stop-color:#f8990f"
         offset="0"
         id="stop296" />
      <stop
         style="stop-opacity:1;stop-color:#f8990f"
         offset="0.139665"
         id="stop298" />
      <stop
         style="stop-opacity:1;stop-color:#ee2147"
         offset="0.877095"
         id="stop300" />
      <stop
         style="stop-opacity:1;stop-color:#ee2147"
         offset="1"
         id="stop302" />
    </linearGradient>
    <clipPath
       clipPathUnits="userSpaceOnUse"
       id="clipPath314">
      <path
         d="m 12334.1,14635.9 c 0,0 -72,-0.5 -120.4,-1.2 -27.5,-0.4 -53.9,10.9 -72.6,31.1 -16.7,18.1 -26,41.7 -26,66.3 v 70.9 c 0,17.8 -14.4,32.2 -32.2,32.2 h -97.9 c -17.8,0 -32.2,-14.4 -32.2,-32.2 v -97.9 c 0,-17.8 14.4,-32.2 32.2,-32.2 h 63.9 c 27,0 52.9,-11.3 71.3,-31.2 l 1.1,-1.1 c 17.1,-18.5 26.4,-42.9 25.9,-68.2 -0.5,-25.9 -0.8,-55.3 -0.8,-55.3 0,-38.5 -16.3,-75.3 -44.9,-101.2 -9.7,-8.7 -22.4,-13.6 -35.5,-13.6 h -248.2 c -33.8,0 -61.1,-27.4 -61.1,-61.1 v -277.4 c 0,-19.7 15.9,-35.7 35.6,-35.7 h 277.4 c 33.8,0 61.2,27.4 61.2,61.2 v 253.6 c 0,14 5.3,27.8 15.5,37.5 21.6,20.6 50.4,32.1 80.3,32.1 h 107.4 c 19.7,0 35.6,15.9 35.6,35.6 v 152.1 c 0,19.7 -15.9,35.7 -35.6,35.7 z"
         id="path312" />
    </clipPath>
    <linearGradient
       x1="0"
       y1="0"
       x2="1"
       y2="0"
       gradientUnits="userSpaceOnUse"
       gradientTransform="matrix(3241.6,3241.6,3241.6,-3241.6,10036.6,12434.9)"
       spreadMethod="pad"
       id="linearGradient324">
      <stop
         style="stop-opacity:1;stop-color:#f8990f"
         offset="0"
         id="stop316" />
      <stop
         style="stop-opacity:1;stop-color:#f8990f"
         offset="0.139665"
         id="stop318" />
      <stop
         style="stop-opacity:1;stop-color:#ee2147"
         offset="0.877095"
         id="stop320" />
      <stop
         style="stop-opacity:1;stop-color:#ee2147"
         offset="1"
         id="stop322" />
    </linearGradient>
    <clipPath
       clipPathUnits="userSpaceOnUse"
       id="clipPath334">
      <path
         d="m 10478.4,14365.1 -110.8,-41.9 253.6,-59.2 -24.3,74.6 127.8,-36.7 -131.1,193.7 16.1,-78.8 -239.5,251.4 124.3,-219 -156.6,53.9 z"
         id="path332" />
    </clipPath>
    <linearGradient
       x1="0"
       y1="0"
       x2="1"
       y2="0"
       gradientUnits="userSpaceOnUse"
       gradientTransform="matrix(3241.6,3241.6,3241.6,-3241.6,9266.95,13204.5)"
       spreadMethod="pad"
       id="linearGradient344">
      <stop
         style="stop-opacity:1;stop-color:#f8990f"
         offset="0"
         id="stop336" />
      <stop
         style="stop-opacity:1;stop-color:#f8990f"
         offset="0.139665"
         id="stop338" />
      <stop
         style="stop-opacity:1;stop-color:#ee2147"
         offset="0.877095"
         id="stop340" />
      <stop
         style="stop-opacity:1;stop-color:#ee2147"
         offset="1"
         id="stop342" />
    </linearGradient>
    <clipPath
       clipPathUnits="userSpaceOnUse"
       id="clipPath354">
      <path
         d="m 11592.8,13851.1 c 0,-22.2 -18.1,-40.2 -40.6,-40.2 h -142.3 c -22.5,0 -40.6,18 -40.6,40.2 v 142.6 c 0,22.2 18.1,40.3 40.6,40.3 h 142.3 c 22.5,0 40.6,-18.1 40.6,-40.3 z m 156.9,101.8 c -40,0 -72.6,32.6 -72.6,72.9 v 161.3 H 9075.19 c -54.71,0 -84.41,-64.5 -48.29,-105.6 121.83,-138.6 372.02,-366.4 711.67,-383.5 6.66,-0.6 203.17,-0.6 209.83,-0.9 l -0.36,-89.1 c -0.16,-40.6 23.86,-76.7 60.36,-94.3 193.8,-93.8 328.6,-291.5 328.6,-520.3 -0.2,-95.2 -77.4,-172.3 -172.6,-172.3 v 0 c -57.1,0 -103.5,-46.3 -103.5,-103.4 v -57.3 c 0,-30.6 24.8,-55.4 55.4,-55.4 h 1134.6 c 30.6,0 55.4,24.8 55.4,55.4 v 66.5 c 0,53.3 -44.1,93.5 -97.4,94.3 -94.3,1.3 -172.1,83.4 -173.9,177.9 0,328.6 265.2,542 552.7,542 h 95.7 c 122.7,0 222.6,98.8 223.8,221.6 l 1.9,190.2 z"
         id="path352" />
    </clipPath>
    <linearGradient
       x1="0"
       y1="0"
       x2="1"
       y2="0"
       gradientUnits="userSpaceOnUse"
       gradientTransform="matrix(3247.77,3247.77,3247.77,-3247.77,9615.12,12849.9)"
       spreadMethod="pad"
       id="linearGradient364">
      <stop
         style="stop-opacity:1;stop-color:#f8990f"
         offset="0"
         id="stop356" />
      <stop
         style="stop-opacity:1;stop-color:#f8990f"
         offset="0.139665"
         id="stop358" />
      <stop
         style="stop-opacity:1;stop-color:#ee2147"
         offset="0.877095"
         id="stop360" />
      <stop
         style="stop-opacity:1;stop-color:#ee2147"
         offset="1"
         id="stop362" />
    </linearGradient>
  </defs>
  <g
     inkscape:label="Layer 1"
     inkscape:groupmode="layer"
     id="layer1"
     transform="translate(-37.924541,35.109368)">
    <g
       id="g1756">
      <path
         d="m 173.42437,13.51391 h -8.23384 V 9.6121878 h 21.07495 V 13.51391 h -8.23031 v 20.930307 h -4.6108 V 13.51391"
         style="fill:#100f0d;fill-opacity:1;fill-rule:nonzero;stroke:none;stroke-width:0.0352778"
         id="path200" />
      <path
         d="m 199.92504,29.265439 c 1.06539,-1.086556 1.59455,-2.518833 1.59455,-4.293306 0,-1.774472 -0.52916,-3.203222 -1.59455,-4.293306 -1.06539,-1.086555 -2.413,-1.629833 -4.04636,-1.629833 -1.62984,0 -2.97392,0.543278 -4.0252,1.629833 -1.05128,1.090084 -1.58044,2.518834 -1.58044,4.293306 0,1.774473 0.52916,3.20675 1.58044,4.293306 1.05128,1.090083 2.39536,1.633361 4.0252,1.633361 1.63336,0 2.98097,-0.543278 4.04636,-1.633361 z m -9.22514,4.187473 c -1.53811,-0.829028 -2.73756,-1.982612 -3.60186,-3.460751 -0.86078,-1.478139 -1.2947,-3.150305 -1.2947,-5.020028 0,-1.866194 0.43392,-3.534833 1.2947,-5.002389 0.8643,-1.464028 2.06375,-2.614083 3.60186,-3.439583 1.53811,-0.829028 3.26319,-1.241778 5.17878,-1.241778 1.94027,0 3.67947,0.41275 5.21758,1.241778 1.53811,0.8255 2.73755,1.975555 3.59833,3.439583 0.86431,1.467556 1.29823,3.136195 1.29823,5.002389 0,1.869723 -0.43392,3.541889 -1.29823,5.020028 -0.86078,1.478139 -2.06022,2.631723 -3.59833,3.460751 -1.53811,0.829027 -3.27731,1.241777 -5.21758,1.241777 -1.91559,0 -3.64067,-0.41275 -5.17878,-1.241777"
         style="fill:#100f0d;fill-opacity:1;fill-rule:nonzero;stroke:none;stroke-width:0.0352778"
         id="path202" />
      <path
         d="m 221.21165,15.288383 v 4.219222 c -0.37747,-0.07056 -0.7232,-0.105833 -1.03011,-0.105833 -1.72509,0 -3.0727,0.504472 -4.04284,1.509889 -0.97013,1.005417 -1.45697,2.451805 -1.45697,4.346222 v 9.186334 h -4.43441 V 15.500049 h 4.22275 v 2.769306 c 1.27705,-1.989667 3.52425,-2.980972 6.74158,-2.980972"
         style="fill:#100f0d;fill-opacity:1;fill-rule:nonzero;stroke:none;stroke-width:0.0352778"
         id="path204" />
      <path
         d="m 239.00223,29.265439 c 1.05481,-1.086556 1.58045,-2.518833 1.58045,-4.293306 0,-1.774472 -0.52564,-3.203222 -1.58045,-4.293306 -1.05127,-1.086555 -2.39183,-1.629833 -4.02519,-1.629833 -1.06539,0 -2.02142,0.243417 -2.87514,0.726722 -0.85019,0.483306 -1.524,1.17475 -2.02142,2.074334 -0.49741,0.899583 -0.74436,1.940278 -0.74436,3.122083 0,1.185334 0.24695,2.226028 0.74436,3.122084 0.49742,0.899583 1.17123,1.591028 2.02142,2.077861 0.85372,0.483306 1.80975,0.726722 2.87514,0.726722 1.63336,0 2.97392,-0.543278 4.02519,-1.633361 z m 1.4217,-12.770556 c 1.45344,0.804333 2.59292,1.93675 3.42194,3.404305 0.82903,1.467556 1.24178,3.157362 1.24178,5.072945 0,1.915584 -0.41275,3.612445 -1.24178,5.090584 -0.82902,1.478139 -1.9685,2.621139 -3.42194,3.425472 -1.45697,0.804334 -3.10445,1.2065 -4.94947,1.2065 -1.30175,0 -2.49062,-0.225777 -3.56659,-0.673805 -1.07597,-0.451556 -1.98261,-1.125361 -2.71286,-2.021417 v 2.44475 h -4.22275 V 8.1199378 h 4.43442 v 9.6872782 c 0.75494,-0.829028 1.651,-1.453444 2.67758,-1.880306 1.03011,-0.426861 2.159,-0.638527 3.3902,-0.638527 1.84502,0 3.4925,0.402166 4.94947,1.2065"
         style="fill:#100f0d;fill-opacity:1;fill-rule:nonzero;stroke:none;stroke-width:0.0352778"
         id="path206" />
      <path
         d="m 264.13765,13.478633 v 7.5565 h 11.99445 v 3.901722 h -11.99445 v 9.507362 h -4.6108 V 9.6121878 h 18.12925 v 3.8664452 h -13.51845"
         style="fill:#100f0d;fill-opacity:1;fill-rule:nonzero;stroke:none;stroke-width:0.0352778"
         id="path208" />
      <path
         d="m 293.72865,29.265439 c 1.06187,-1.086556 1.59456,-2.518833 1.59456,-4.293306 0,-1.774472 -0.53269,-3.203222 -1.59456,-4.293306 -1.06539,-1.086555 -2.413,-1.629833 -4.04636,-1.629833 -1.62983,0 -2.97391,0.543278 -4.02519,1.629833 -1.05481,1.090084 -1.58045,2.518834 -1.58045,4.293306 0,1.774473 0.52564,3.20675 1.58045,4.293306 1.05128,1.090083 2.39536,1.633361 4.02519,1.633361 1.63336,0 2.98097,-0.543278 4.04636,-1.633361 z m -9.22514,4.187473 c -1.53811,-0.829028 -2.73755,-1.982612 -3.60186,-3.460751 -0.8643,-1.478139 -1.29469,-3.150305 -1.29469,-5.020028 0,-1.866194 0.43039,-3.534833 1.29469,-5.002389 0.86431,-1.464028 2.06375,-2.614083 3.60186,-3.439583 1.53812,-0.829028 3.2632,-1.241778 5.17878,-1.241778 1.94028,0 3.67948,0.41275 5.21406,1.241778 1.53811,0.8255 2.73755,1.975555 3.60186,3.439583 0.86431,1.467556 1.29469,3.136195 1.29469,5.002389 0,1.869723 -0.43038,3.541889 -1.29469,5.020028 -0.86431,1.478139 -2.06375,2.631723 -3.60186,3.460751 -1.53458,0.829027 -3.27378,1.241777 -5.21406,1.241777 -1.91558,0 -3.64066,-0.41275 -5.17878,-1.241777"
         style="fill:#100f0d;fill-opacity:1;fill-rule:nonzero;stroke:none;stroke-width:0.0352778"
         id="path210" />
      <path
         d="m 322.39185,15.500049 v 18.944168 h -4.22275 v -2.413 c -0.70908,0.853722 -1.59456,1.509889 -2.65994,1.972028 -1.06187,0.458611 -2.21192,0.691444 -3.43959,0.691444 -2.53294,0 -4.52261,-0.705555 -5.97958,-2.113139 -1.45345,-1.404055 -2.18017,-3.4925 -2.18017,-6.261806 V 15.500049 h 4.43442 v 10.216445 c 0,1.703917 0.38453,2.977445 1.15358,3.817056 0.76906,0.839611 1.86267,1.259417 3.28084,1.259417 1.58397,0 2.84338,-0.490361 3.77825,-1.474611 0.93486,-0.980723 1.40052,-2.395362 1.40052,-4.240389 v -9.577918 h 4.43442"
         style="fill:#100f0d;fill-opacity:1;fill-rule:nonzero;stroke:none;stroke-width:0.0352778"
         id="path212" />
      <path
         d="m 344.70857,17.380355 c 1.44286,1.397 2.16253,3.464278 2.16253,6.208889 v 10.854973 h -4.43442 v -10.287 c 0,-1.654528 -0.38805,-2.903362 -1.16769,-3.742973 -0.78317,-0.839611 -1.89442,-1.259417 -3.33728,-1.259417 -1.62983,0 -2.921,0.490361 -3.86644,1.471084 -0.94545,0.98425 -1.41817,2.395361 -1.41817,4.240389 v 9.577917 h -4.43442 V 15.500049 h 4.21923 v 2.448278 c 0.73377,-0.874889 1.65805,-1.538111 2.7693,-1.986139 1.11125,-0.451555 2.36361,-0.673805 3.76061,-0.673805 2.38831,0 4.30389,0.6985 5.74675,2.091972"
         style="fill:#100f0d;fill-opacity:1;fill-rule:nonzero;stroke:none;stroke-width:0.0352778"
         id="path214" />
      <path
         d="m 363.97377,30.172078 c 0.85019,-0.486833 1.524,-1.178278 2.02142,-2.077861 0.49741,-0.896056 0.74436,-1.93675 0.74436,-3.122084 0,-1.181805 -0.24695,-2.2225 -0.74436,-3.122083 -0.49742,-0.899584 -1.17123,-1.591028 -2.02142,-2.074334 -0.85372,-0.483305 -1.80975,-0.726722 -2.87514,-0.726722 -1.06539,0 -2.02142,0.243417 -2.87514,0.726722 -0.85019,0.483306 -1.524,1.17475 -2.02142,2.074334 -0.49741,0.899583 -0.74436,1.940278 -0.74436,3.122083 0,1.185334 0.24695,2.226028 0.74436,3.122084 0.49742,0.899583 1.17123,1.591028 2.02142,2.077861 0.85372,0.483306 1.80975,0.726722 2.87514,0.726722 1.06539,0 2.02142,-0.243416 2.87514,-0.726722 z M 371.10341,8.1199378 V 34.444217 h -4.25803 v -2.44475 c -0.73378,0.896056 -1.63689,1.569861 -2.71286,2.021417 -1.07597,0.448028 -2.26483,0.673805 -3.56658,0.673805 -1.82034,0 -3.45723,-0.402166 -4.9142,-1.2065 -1.45344,-0.804333 -2.59292,-1.947333 -3.42194,-3.425472 -0.82903,-1.478139 -1.24178,-3.175 -1.24178,-5.090584 0,-1.915583 0.41275,-3.605389 1.24178,-5.072945 0.82902,-1.467555 1.9685,-2.599972 3.42194,-3.404305 1.45697,-0.804334 3.09386,-1.2065 4.9142,-1.2065 1.25236,0 2.40241,0.211666 3.44311,0.638527 1.04069,0.426862 1.92616,1.065389 2.65994,1.915584 V 8.1199378 h 4.43442"
         style="fill:#100f0d;fill-opacity:1;fill-rule:nonzero;stroke:none;stroke-width:0.0352778"
         id="path216" />
      <path
         d="m 387.88505,15.288383 v 4.219222 c -0.37747,-0.07056 -0.7232,-0.105833 -1.03011,-0.105833 -1.72509,0 -3.0727,0.504472 -4.04284,1.509889 -0.97013,1.005417 -1.45697,2.451805 -1.45697,4.346222 v 9.186334 h -4.43442 V 15.500049 h 4.22275 v 2.769306 c 1.27706,-1.989667 3.52426,-2.980972 6.74159,-2.980972"
         style="fill:#100f0d;fill-opacity:1;fill-rule:nonzero;stroke:none;stroke-width:0.0352778"
         id="path218" />
      <path
         d="m 410.09241,15.500049 -8.86883,20.471696 c -0.82903,2.056695 -1.83092,3.506611 -3.01625,4.346223 -1.18181,0.839611 -2.61056,1.259416 -4.28978,1.259416 -0.94897,0 -1.88031,-0.155222 -2.80458,-0.462139 -0.92075,-0.306916 -1.67923,-0.733777 -2.26837,-1.277055 l 1.77095,-3.263195 c 0.42686,0.402167 0.9278,0.719667 1.50989,0.956028 0.57855,0.236361 1.16416,0.356306 1.7533,0.356306 0.78317,0 1.42523,-0.201084 1.93675,-0.603251 0.508,-0.402166 0.97367,-1.075972 1.40053,-2.021416 l 0.3175,-0.747889 -8.26558,-19.014724 h 4.6108 l 5.96195,14.012335 5.99722,-14.012335 h 4.2545"
         style="fill:#100f0d;fill-opacity:1;fill-rule:nonzero;stroke:none;stroke-width:0.0352778"
         id="path220" />
      <path
         d="m 180.99498,47.260635 c 0,-1.255889 -0.93839,-1.883834 -2.81517,-1.883834 h -3.91583 v 3.764139 h 3.91583 c 1.87678,0 2.81517,-0.624416 2.81517,-1.880305 z m -6.731,-7.362473 v 3.598334 h 3.43253 c 0.84314,0 1.49225,-0.151695 1.9438,-0.458612 0.45509,-0.303389 0.68086,-0.747889 0.68086,-1.329972 0,-0.596194 -0.22577,-1.04775 -0.68086,-1.351139 -0.45155,-0.303389 -1.10066,-0.458611 -1.9438,-0.458611 z m 8.53722,5.545667 c 0.42334,0.553861 0.635,1.23825 0.635,2.060222 0,1.128889 -0.43744,2.003778 -1.30528,2.617612 -0.87136,0.613833 -2.13783,0.92075 -3.80294,0.92075 h -6.48406 V 37.99669 h 6.11012 c 1.54163,0 2.7305,0.303389 3.55952,0.906639 0.83256,0.599722 1.24884,1.432277 1.24884,2.487083 0,0.645583 -0.14817,1.217083 -0.4445,1.7145 -0.29986,0.497417 -0.70909,0.881945 -1.2312,1.153584 0.71967,0.236361 1.29117,0.631472 1.7145,1.185333"
         style="fill:#100f0d;fill-opacity:1;fill-rule:nonzero;stroke:none;stroke-width:0.0352778"
         id="path222" />
      <path
         d="m 195.4377,41.090551 v 9.951862 h -2.21897 V 49.77594 c -0.37394,0.448028 -0.83961,0.79375 -1.397,1.033639 -0.56092,0.243417 -1.16417,0.363361 -1.80975,0.363361 -1.32644,0 -2.37419,-0.366888 -3.13972,-1.107722 -0.762,-0.740833 -1.14653,-1.834444 -1.14653,-3.287889 v -5.686778 h 2.33186 v 5.369278 c 0,0.892528 0.20109,1.562806 0.60325,2.003778 0.4057,0.440972 0.98072,0.659694 1.72509,0.659694 0.83255,0 1.49225,-0.257527 1.98261,-0.772583 0.49389,-0.515056 0.7373,-1.259417 0.7373,-2.226028 v -5.034139 h 2.33186"
         style="fill:#100f0d;fill-opacity:1;fill-rule:nonzero;stroke:none;stroke-width:0.0352778"
         id="path224" />
      <path
         d="m 198.49276,41.090551 h 2.32833 v 9.951862 h -2.32833 z m 0.11289,-2.039056 c -0.28575,-0.268111 -0.43039,-0.599722 -0.43039,-0.998361 0,-0.395111 0.14464,-0.73025 0.43039,-0.994833 0.28575,-0.268111 0.63853,-0.402167 1.06186,-0.402167 0.4198,0 0.77611,0.127 1.06186,0.381 0.28575,0.257528 0.42686,0.575028 0.42686,0.959556 0,0.409222 -0.13758,0.754944 -0.4198,1.037166 -0.2787,0.278695 -0.635,0.419806 -1.06892,0.419806 -0.42333,0 -0.77611,-0.134056 -1.06186,-0.402167"
         style="fill:#100f0d;fill-opacity:1;fill-rule:nonzero;stroke:none;stroke-width:0.0352778"
         id="path226" />
      <path
         d="m 203.87968,37.213523 h 2.32833 v 13.82889 h -2.32833 v -13.82889"
         style="fill:#100f0d;fill-opacity:1;fill-rule:nonzero;stroke:none;stroke-width:0.0352778"
         id="path228" />
      <path
         d="m 215.26382,48.798746 c 0.44802,-0.257528 0.8008,-0.617361 1.06186,-1.090084 0.26105,-0.472722 0.39158,-1.019527 0.39158,-1.640416 0,-0.620889 -0.13053,-1.167695 -0.39158,-1.640417 -0.26106,-0.472722 -0.61384,-0.836083 -1.06186,-1.090083 -0.44803,-0.254 -0.94898,-0.381 -1.50989,-0.381 -0.55739,0 -1.06186,0.127 -1.50636,0.381 -0.44803,0.254 -0.80434,0.617361 -1.06539,1.090083 -0.26106,0.472722 -0.39159,1.019528 -0.39159,1.640417 0,0.620889 0.13053,1.167694 0.39159,1.640416 0.26105,0.472723 0.61736,0.832556 1.06539,1.090084 0.4445,0.254 0.94897,0.381 1.50636,0.381 0.56091,0 1.06186,-0.127 1.50989,-0.381 z m 3.7465,-11.585223 v 13.82889 h -2.23662 v -1.284112 c -0.38452,0.472723 -0.86077,0.825501 -1.42522,1.061862 -0.56444,0.236361 -1.18886,0.352777 -1.87325,0.352777 -0.95603,0 -1.8168,-0.211666 -2.58233,-0.631472 -0.762,-0.423333 -1.36172,-1.023055 -1.79564,-1.799167 -0.43744,-0.776111 -0.65264,-1.668639 -0.65264,-2.674055 0,-1.005417 0.2152,-1.894417 0.65264,-2.667 0.43392,-0.769056 1.03364,-1.365251 1.79564,-1.788584 0.76553,-0.419805 1.6263,-0.631472 2.58233,-0.631472 0.6597,0 1.26295,0.109361 1.80622,0.335139 0.54681,0.22225 1.016,0.557389 1.40053,1.005416 v -5.108222 h 2.32834"
         style="fill:#100f0d;fill-opacity:1;fill-rule:nonzero;stroke:none;stroke-width:0.0352778"
         id="path230" />
      <path
         d="m 233.80582,48.322496 c 0.56091,-0.5715 0.83961,-1.322917 0.83961,-2.25425 0,-0.931334 -0.2787,-1.68275 -0.83961,-2.25425 -0.55739,-0.5715 -1.26648,-0.85725 -2.12373,-0.85725 -0.85725,0 -1.5628,0.28575 -2.11313,0.85725 -0.55387,0.5715 -0.83256,1.322916 -0.83256,2.25425 0,0.931333 0.27869,1.68275 0.83256,2.25425 0.55033,0.5715 1.25588,0.85725 2.11313,0.85725 0.85725,0 1.56634,-0.28575 2.12373,-0.85725 z m 3.13266,-7.231945 v 13.567834 h -2.32833 v -4.826 c -0.78317,0.892528 -1.84503,1.340555 -3.18911,1.340555 -0.97014,0 -1.83445,-0.211666 -2.59997,-0.631472 -0.762,-0.423333 -1.3582,-1.019528 -1.78859,-1.792111 -0.42686,-0.769056 -0.64205,-1.661583 -0.64205,-2.681111 0,-1.005417 0.21519,-1.894417 0.65264,-2.667 0.43391,-0.769056 1.03011,-1.365251 1.78858,-1.788584 0.75847,-0.419805 1.61925,-0.631472 2.58939,-0.631472 0.68439,0 1.3088,0.116416 1.87325,0.352778 0.56444,0.236361 1.04069,0.589139 1.42522,1.061861 v -1.305278 h 2.21897"
         style="fill:#100f0d;fill-opacity:1;fill-rule:nonzero;stroke:none;stroke-width:0.0352778"
         id="path232" />
      <path
         d="m 249.6279,41.090551 v 9.951862 h -2.21544 V 49.77594 c -0.37395,0.448028 -0.83961,0.79375 -1.40053,1.033639 -0.55739,0.243417 -1.16064,0.363361 -1.80622,0.363361 -1.32998,0 -2.37773,-0.366888 -3.13973,-1.107722 -0.76552,-0.740833 -1.14652,-1.834444 -1.14652,-3.287889 v -5.686778 h 2.32833 v 5.369278 c 0,0.892528 0.20461,1.562806 0.60678,2.003778 0.40216,0.440972 0.97719,0.659694 1.72508,0.659694 0.82903,0 1.49225,-0.257527 1.98261,-0.772583 0.49036,-0.515056 0.73731,-1.259417 0.73731,-2.226028 v -5.034139 h 2.32833"
         style="fill:#100f0d;fill-opacity:1;fill-rule:nonzero;stroke:none;stroke-width:0.0352778"
         id="path234" />
      <path
         d="m 252.68648,41.090551 h 2.32834 v 9.951862 h -2.32834 z m 0.10937,-2.039056 c -0.28575,-0.268111 -0.42687,-0.599722 -0.42687,-0.998361 0,-0.395111 0.14112,-0.73025 0.42687,-0.994833 0.28575,-0.268111 0.64205,-0.402167 1.06186,-0.402167 0.42333,0 0.77611,0.127 1.06539,0.381 0.28222,0.257528 0.42686,0.575028 0.42686,0.959556 0,0.409222 -0.14111,0.754944 -0.41981,1.037166 -0.27869,0.278695 -0.635,0.419806 -1.07244,0.419806 -0.41981,0 -0.77611,-0.134056 -1.06186,-0.402167"
         style="fill:#100f0d;fill-opacity:1;fill-rule:nonzero;stroke:none;stroke-width:0.0352778"
         id="path236" />
      <path
         d="m 259.85846,50.520302 c -0.81845,-0.433917 -1.45697,-1.040695 -1.91911,-1.816806 -0.45862,-0.776111 -0.68792,-1.654528 -0.68792,-2.63525 0,-0.980723 0.2293,-1.859139 0.68792,-2.628195 0.46214,-0.769056 1.09714,-1.372306 1.91205,-1.80975 0.81139,-0.433917 1.74272,-0.649111 2.78342,-0.649111 0.98425,0 1.84503,0.197555 2.58233,0.596194 0.74084,0.398639 1.2947,0.966611 1.66864,1.7145 l -1.78858,1.044223 c -0.28575,-0.462139 -0.64206,-0.807861 -1.07245,-1.037167 -0.42686,-0.229306 -0.89605,-0.342194 -1.40758,-0.342194 -0.86783,0 -1.59103,0.282222 -2.16253,0.846666 -0.5715,0.564445 -0.85372,1.319389 -0.85372,2.264834 0,0.941916 0.28222,1.696861 0.84667,2.264833 0.56444,0.564445 1.28764,0.846667 2.16958,0.846667 0.51153,0 0.98072,-0.112889 1.40758,-0.345722 0.43039,-0.229306 0.7867,-0.575028 1.07245,-1.033639 l 1.78858,1.044222 c -0.38453,0.744361 -0.94897,1.319389 -1.68628,1.725083 -0.74083,0.402167 -1.59455,0.60325 -2.56469,0.60325 -1.03011,0 -1.95439,-0.215194 -2.77636,-0.652638"
         style="fill:#100f0d;fill-opacity:1;fill-rule:nonzero;stroke:none;stroke-width:0.0352778"
         id="path238" />
      <path
         d="m 272.8689,46.777329 -1.73566,1.636889 v 2.628195 h -2.32834 v -13.82889 h 2.32834 v 8.35025 l 4.82952,-4.473222 h 2.794 l -4.15572,4.176889 4.54731,5.774973 h -2.83281 l -3.44664,-4.265084"
         style="fill:#100f0d;fill-opacity:1;fill-rule:nonzero;stroke:none;stroke-width:0.0352778"
         id="path240" />
      <path
         d="m 280.65824,37.213523 h 2.32833 v 13.82889 h -2.32833 v -13.82889"
         style="fill:#100f0d;fill-opacity:1;fill-rule:nonzero;stroke:none;stroke-width:0.0352778"
         id="path242" />
      <path
         d="m 295.36202,41.090551 -4.6602,10.752667 c -0.43392,1.083028 -0.96308,1.845028 -1.58397,2.286 -0.62089,0.440973 -1.37231,0.659695 -2.25425,0.659695 -0.49742,0 -0.98778,-0.08114 -1.47109,-0.243417 -0.48683,-0.15875 -0.88194,-0.384528 -1.19238,-0.670278 l 0.93133,-1.7145 c 0.22225,0.211667 0.48683,0.381 0.79022,0.504473 0.30339,0.123472 0.61383,0.186972 0.92428,0.186972 0.40922,0 0.74789,-0.105834 1.016,-0.3175 0.26458,-0.211667 0.51153,-0.564445 0.73378,-1.061861 l 0.16933,-0.391584 -4.34269,-9.990667 h 2.42358 l 3.12914,7.362473 3.1503,-7.362473 h 2.23662"
         style="fill:#100f0d;fill-opacity:1;fill-rule:nonzero;stroke:none;stroke-width:0.0352778"
         id="path244" />
      <path
         d="m 298.04665,48.509468 c 0.28575,0.28575 0.42687,0.659695 0.42687,1.118306 0,0.197555 -0.0282,0.405694 -0.0847,0.624416 -0.0564,0.215195 -0.16933,0.543278 -0.3422,0.977195 l -0.9525,2.628195 h -1.50988 l 0.74788,-2.850445 c -0.27516,-0.112889 -0.49036,-0.289278 -0.64558,-0.532695 -0.15522,-0.239888 -0.23283,-0.525639 -0.23283,-0.846666 0,-0.458611 0.14464,-0.832556 0.43039,-1.118306 0.28575,-0.28575 0.64558,-0.430389 1.0795,-0.430389 0.43391,0 0.79727,0.144639 1.08302,0.430389"
         style="fill:#100f0d;fill-opacity:1;fill-rule:nonzero;stroke:none;stroke-width:0.0352778"
         id="path246" />
      <path
         d="m 307.68102,50.520302 c -0.82198,-0.433917 -1.4605,-1.040695 -1.92264,-1.816806 -0.45861,-0.776111 -0.68792,-1.654528 -0.68792,-2.63525 0,-0.980723 0.22931,-1.859139 0.68792,-2.628195 0.46214,-0.769056 1.09714,-1.372306 1.91205,-1.80975 0.81492,-0.433917 1.74272,-0.649111 2.78695,-0.649111 0.98072,0 1.8415,0.197555 2.5788,0.596194 0.74084,0.398639 1.2947,0.966611 1.66864,1.7145 l -1.78858,1.044223 c -0.28575,-0.462139 -0.64206,-0.807861 -1.07245,-1.037167 -0.42686,-0.229306 -0.89605,-0.342194 -1.40758,-0.342194 -0.86783,0 -1.59103,0.282222 -2.159,0.846666 -0.5715,0.564445 -0.85725,1.319389 -0.85725,2.264834 0,0.941916 0.28222,1.696861 0.84667,2.264833 0.56444,0.564445 1.28764,0.846667 2.16958,0.846667 0.51153,0 0.98072,-0.112889 1.40758,-0.345722 0.43039,-0.229306 0.7867,-0.575028 1.07245,-1.033639 l 1.78858,1.044222 c -0.38453,0.744361 -0.94544,1.319389 -1.68628,1.725083 -0.7373,0.402167 -1.59455,0.60325 -2.56116,0.60325 -1.03364,0 -1.95792,-0.215194 -2.77636,-0.652638"
         style="fill:#100f0d;fill-opacity:1;fill-rule:nonzero;stroke:none;stroke-width:0.0352778"
         id="path248" />
      <path
         d="m 323.16443,48.322496 c 0.56092,-0.5715 0.83961,-1.322917 0.83961,-2.25425 0,-0.931334 -0.27869,-1.68275 -0.83961,-2.25425 -0.55739,-0.5715 -1.26647,-0.85725 -2.12372,-0.85725 -0.85725,0 -1.5628,0.28575 -2.11314,0.85725 -0.55386,0.5715 -0.82903,1.322916 -0.82903,2.25425 0,0.931333 0.27517,1.68275 0.82903,2.25425 0.55034,0.5715 1.25589,0.85725 2.11314,0.85725 0.85725,0 1.56633,-0.28575 2.12372,-0.85725 z m -4.84364,2.197806 c -0.80786,-0.433917 -1.43933,-1.040695 -1.89088,-1.816806 -0.45509,-0.776111 -0.68087,-1.654528 -0.68087,-2.63525 0,-0.980723 0.22578,-1.859139 0.68087,-2.628195 0.45155,-0.769056 1.08302,-1.372306 1.89088,-1.80975 0.80787,-0.433917 1.7145,-0.649111 2.71992,-0.649111 1.01953,0 1.93322,0.215194 2.74108,0.649111 0.80787,0.437444 1.43581,1.040694 1.89089,1.80975 0.45509,0.769056 0.68086,1.647472 0.68086,2.628195 0,0.980722 -0.22577,1.859139 -0.68086,2.63525 -0.45508,0.776111 -1.08302,1.382889 -1.89089,1.816806 -0.80786,0.437444 -1.72155,0.652638 -2.74108,0.652638 -1.00542,0 -1.91205,-0.215194 -2.71992,-0.652638"
         style="fill:#100f0d;fill-opacity:1;fill-rule:nonzero;stroke:none;stroke-width:0.0352778"
         id="path250" />
      <path
         d="m 334.34749,40.98119 v 2.215444 c -0.19756,-0.03528 -0.381,-0.05644 -0.53975,-0.05644 -0.90664,0 -1.61572,0.264583 -2.12372,0.79375 -0.51153,0.529167 -0.76553,1.287639 -0.76553,2.282472 v 4.826001 h -2.32833 v -9.951862 h 2.21544 v 1.453444 c 0.67028,-1.044222 1.85208,-1.562805 3.54189,-1.562805"
         style="fill:#100f0d;fill-opacity:1;fill-rule:nonzero;stroke:none;stroke-width:0.0352778"
         id="path252" />
      <path
         d="m 342.08038,40.98119 v 2.215444 c -0.19756,-0.03528 -0.37747,-0.05644 -0.53975,-0.05644 -0.90664,0 -1.61572,0.264583 -2.12372,0.79375 -0.51153,0.529167 -0.76553,1.287639 -0.76553,2.282472 v 4.826001 h -2.32833 v -9.951862 h 2.21897 v 1.453444 c 0.67028,-1.044222 1.84855,-1.562805 3.53836,-1.562805"
         style="fill:#100f0d;fill-opacity:1;fill-rule:nonzero;stroke:none;stroke-width:0.0352778"
         id="path254" />
      <path
         d="m 346.39485,43.503551 c -0.51505,0.440972 -0.82903,1.030111 -0.93839,1.763889 h 5.64445 c -0.0988,-0.723194 -0.40217,-1.305278 -0.91017,-1.753306 -0.51153,-0.448027 -1.14653,-0.670277 -1.90147,-0.670277 -0.74789,0 -1.37583,0.218722 -1.89442,0.659694 z m 6.88622,3.309056 h -7.80697 c 0.13758,0.733778 0.49389,1.315861 1.07245,1.742722 0.57502,0.430389 1.29469,0.642056 2.15194,0.642056 1.09361,0 1.9932,-0.359834 2.70228,-1.0795 l 1.24883,1.435805 c -0.44803,0.532695 -1.01247,0.938389 -1.69686,1.210028 -0.68439,0.275167 -1.45344,0.409222 -2.31069,0.409222 -1.09361,0 -2.0567,-0.215194 -2.88925,-0.652638 -0.83256,-0.433917 -1.47462,-1.040695 -1.9297,-1.816806 -0.45155,-0.776111 -0.67733,-1.654528 -0.67733,-2.63525 0,-0.970139 0.21872,-1.8415 0.65969,-2.617612 0.44097,-0.779639 1.05481,-1.382889 1.83445,-1.820333 0.78316,-0.433917 1.66511,-0.649111 2.64936,-0.649111 0.96661,0 1.83444,0.211667 2.59997,0.642055 0.762,0.426862 1.3582,1.030112 1.78858,1.806223 0.42687,0.776111 0.64206,1.675694 0.64206,2.695222 0,0.15875 -0.0141,0.388056 -0.0388,0.687917"
         style="fill:#100f0d;fill-opacity:1;fill-rule:nonzero;stroke:none;stroke-width:0.0352778"
         id="path256" />
      <path
         d="m 357.34507,50.520302 c -0.81844,-0.433917 -1.4605,-1.040695 -1.91911,-1.816806 -0.45861,-0.776111 -0.69144,-1.654528 -0.69144,-2.63525 0,-0.980723 0.23283,-1.859139 0.69144,-2.628195 0.45861,-0.769056 1.09714,-1.372306 1.90853,-1.80975 0.81492,-0.433917 1.74272,-0.649111 2.78695,-0.649111 0.98072,0 1.8415,0.197555 2.58233,0.596194 0.7373,0.398639 1.29469,0.966611 1.66864,1.7145 l -1.78859,1.044223 c -0.28927,-0.462139 -0.64558,-0.807861 -1.07244,-1.037167 -0.43039,-0.229306 -0.89958,-0.342194 -1.40758,-0.342194 -0.87136,0 -1.59103,0.282222 -2.16253,0.846666 -0.5715,0.564445 -0.85725,1.319389 -0.85725,2.264834 0,0.941916 0.28222,1.696861 0.84667,2.264833 0.56444,0.564445 1.29116,0.846667 2.17311,0.846667 0.508,0 0.97719,-0.112889 1.40758,-0.345722 0.42686,-0.229306 0.78317,-0.575028 1.07244,-1.033639 l 1.78859,1.044222 c -0.38806,0.744361 -0.94897,1.319389 -1.68981,1.725083 -0.7373,0.402167 -1.59103,0.60325 -2.56116,0.60325 -1.03012,0 -1.95792,-0.215194 -2.77637,-0.652638"
         style="fill:#100f0d;fill-opacity:1;fill-rule:nonzero;stroke:none;stroke-width:0.0352778"
         id="path258" />
      <path
         d="m 372.49688,50.502663 c -0.27517,0.22225 -0.60678,0.391583 -0.99836,0.504472 -0.39158,0.109361 -0.80433,0.165805 -1.23825,0.165805 -1.09361,0 -1.94028,-0.28575 -2.53647,-0.85725 -0.5962,-0.5715 -0.89253,-1.404055 -0.89253,-2.497666 v -4.787195 h -1.64042 v -1.866195 h 1.64042 v -2.271889 h 2.32833 v 2.271889 h 2.667 v 1.866195 h -2.667 v 4.73075 c 0,0.486834 0.11995,0.85725 0.35631,1.11125 0.23283,0.254 0.57503,0.381 1.02305,0.381 0.52212,0 0.95603,-0.137583 1.30528,-0.409222 l 0.65264,1.658056"
         style="fill:#100f0d;fill-opacity:1;fill-rule:nonzero;stroke:none;stroke-width:0.0352778"
         id="path260" />
      <path
         d="m 374.41599,37.213523 h 2.32834 v 13.82889 h -2.32834 v -13.82889"
         style="fill:#100f0d;fill-opacity:1;fill-rule:nonzero;stroke:none;stroke-width:0.0352778"
         id="path262" />
      <path
         d="m 389.11977,41.090551 -4.66019,10.752667 c -0.43392,1.083028 -0.96309,1.845028 -1.58398,2.286 -0.62088,0.440973 -1.3723,0.659695 -2.25425,0.659695 -0.49741,0 -0.98777,-0.08114 -1.47461,-0.243417 -0.4833,-0.15875 -0.88194,-0.384528 -1.19239,-0.670278 l 0.93486,-1.7145 c 0.22225,0.211667 0.48684,0.381 0.79023,0.504473 0.30339,0.123472 0.6103,0.186972 0.92427,0.186972 0.40923,0 0.74789,-0.105834 1.01248,-0.3175 0.26811,-0.211667 0.51505,-0.564445 0.7373,-1.061861 l 0.16934,-0.391584 -4.3427,-9.990667 h 2.42358 l 3.12914,7.362473 3.15031,-7.362473 h 2.23661"
         style="fill:#100f0d;fill-opacity:1;fill-rule:nonzero;stroke:none;stroke-width:0.0352778"
         id="path264" />
      <path
         d="m 389.62072,50.735496 c -0.29634,-0.292806 -0.4445,-0.659694 -0.4445,-1.107722 0,-0.458611 0.14463,-0.832556 0.43744,-1.118306 0.28928,-0.28575 0.65264,-0.430389 1.09008,-0.430389 0.43392,0 0.79728,0.144639 1.09009,0.430389 0.2928,0.28575 0.43744,0.659695 0.43744,1.118306 0,0.448028 -0.14817,0.814916 -0.44803,1.107722 -0.29633,0.292806 -0.65969,0.437444 -1.0795,0.437444 -0.42333,0 -0.78316,-0.144638 -1.08302,-0.437444"
         style="fill:#100f0d;fill-opacity:1;fill-rule:nonzero;stroke:none;stroke-width:0.0352778"
         id="path266" />
      <g
         id="g268"
         transform="matrix(0.03527778,0,0,-0.03527778,-279.96566,520.05697)">
        <g
           id="g270"
           clip-path="url(#clipPath274)">
          <path
             d="m 10560.8,14692.6 264.1,-376.9 c 20.6,-29.4 60,-38.7 91.5,-21.4 l 242,132.3 c 34.2,18.7 47.8,60.8 31,95.9 l -162.2,338.8 1278.6,658.3 c 34.5,17.9 47.9,60.5 30,95 l -44,84.4 c -17.9,34.6 -60.5,48 -95,30 l -1288.5,-663.4 -156.5,283.7 c -19.3,35 -63,48.1 -98.3,29.5 l -127.8,-67.1 c -25.8,-13.5 -40.6,-41.6 -37.2,-70.5 l 60.1,-516.3 c 1.3,-11.6 5.5,-22.7 12.2,-32.3"
             style="fill:url(#linearGradient284);fill-opacity:1;fill-rule:nonzero;stroke:none"
             id="path286" />
        </g>
      </g>
      <g
         id="g288"
         transform="matrix(0.03527778,0,0,-0.03527778,-279.96566,520.05697)">
        <g
           id="g290"
           clip-path="url(#clipPath294)">
          <path
             d="m 11987,13638.1 h 139.4 v 139.4 H 11987 v -139.4"
             style="fill:url(#linearGradient304);fill-opacity:1;fill-rule:nonzero;stroke:none"
             id="path306" />
        </g>
      </g>
      <g
         id="g308"
         transform="matrix(0.03527778,0,0,-0.03527778,-279.96566,520.05697)">
        <g
           id="g310"
           clip-path="url(#clipPath314)">
          <path
             d="m 12334.1,14635.9 c 0,0 -72,-0.5 -120.4,-1.2 -27.5,-0.4 -53.9,10.9 -72.6,31.1 -16.7,18.1 -26,41.7 -26,66.3 v 70.9 c 0,17.8 -14.4,32.2 -32.2,32.2 h -97.9 c -17.8,0 -32.2,-14.4 -32.2,-32.2 v -97.9 c 0,-17.8 14.4,-32.2 32.2,-32.2 h 63.9 c 27,0 52.9,-11.3 71.3,-31.2 l 1.1,-1.1 c 17.1,-18.5 26.4,-42.9 25.9,-68.2 -0.5,-25.9 -0.8,-55.3 -0.8,-55.3 0,-38.5 -16.3,-75.3 -44.9,-101.2 -9.7,-8.7 -22.4,-13.6 -35.5,-13.6 h -248.2 c -33.8,0 -61.1,-27.4 -61.1,-61.1 v -277.4 c 0,-19.7 15.9,-35.7 35.6,-35.7 h 277.4 c 33.8,0 61.2,27.4 61.2,61.2 v 253.6 c 0,14 5.3,27.8 15.5,37.5 21.6,20.6 50.4,32.1 80.3,32.1 h 107.4 c 19.7,0 35.6,15.9 35.6,35.6 v 152.1 c 0,19.7 -15.9,35.7 -35.6,35.7"
             style="fill:url(#linearGradient324);fill-opacity:1;fill-rule:nonzero;stroke:none"
             id="path326" />
        </g>
      </g>
      <g
         id="g328"
         transform="matrix(0.03527778,0,0,-0.03527778,-279.96566,520.05697)">
        <g
           id="g330"
           clip-path="url(#clipPath334)">
          <path
             d="m 10478.4,14365.1 -110.8,-41.9 253.6,-59.2 -24.3,74.6 127.8,-36.7 -131.1,193.7 16.1,-78.8 -239.5,251.4 124.3,-219 -156.6,53.9 140.5,-138"
             style="fill:url(#linearGradient344);fill-opacity:1;fill-rule:nonzero;stroke:none"
             id="path346" />
        </g>
      </g>
      <g
         id="g348"
         transform="matrix(0.03527778,0,0,-0.03527778,-279.96566,520.05697)">
        <g
           id="g350"
           clip-path="url(#clipPath354)">
          <path
             d="m 11592.8,13851.1 c 0,-22.2 -18.1,-40.2 -40.6,-40.2 h -142.3 c -22.5,0 -40.6,18 -40.6,40.2 v 142.6 c 0,22.2 18.1,40.3 40.6,40.3 h 142.3 c 22.5,0 40.6,-18.1 40.6,-40.3 z m 156.9,101.8 c -40,0 -72.6,32.6 -72.6,72.9 v 161.3 H 9075.19 c -54.71,0 -84.41,-64.5 -48.29,-105.6 121.83,-138.6 372.02,-366.4 711.67,-383.5 6.66,-0.6 203.17,-0.6 209.83,-0.9 l -0.36,-89.1 c -0.16,-40.6 23.86,-76.7 60.36,-94.3 193.8,-93.8 328.6,-291.5 328.6,-520.3 -0.2,-95.2 -77.4,-172.3 -172.6,-172.3 v 0 c -57.1,0 -103.5,-46.3 -103.5,-103.4 v -57.3 c 0,-30.6 24.8,-55.4 55.4,-55.4 h 1134.6 c 30.6,0 55.4,24.8 55.4,55.4 v 66.5 c 0,53.3 -44.1,93.5 -97.4,94.3 -94.3,1.3 -172.1,83.4 -173.9,177.9 0,328.6 265.2,542 552.7,542 h 95.7 c 122.7,0 222.6,98.8 223.8,221.6 l 1.9,190.2 h -159.4"
             style="fill:url(#linearGradient364);fill-opacity:1;fill-rule:nonzero;stroke:none"
             id="path366" />
        </g>
      </g>
    </g>
  </g>
</svg>
